<svg id="iconSet" width="200" height="200" viewBox="0 0 200 200" fill="none" xmlns="http://www.w3.org/2000/svg">
    <!-- <g id="iconFrame" clip-path="url(#clip0)"> -->
    <!-- <rect width="200" height="200" fill="white"/> -->
    
    <g id="blob">
        <rect id="Square" width="200" height="200" fill="#66FCF1"/>
    </g>

    <g id="square">
        <rect id="Square" width="200" height="200" fill="#66FCF1"/>
    </g>

    <g id="rectangle">
        <rect id="Rectangle" y="33" width="200" height="135" fill="#66FCF1"/>
    </g>

    <g id="circle">
        <circle id="Circle" cx="100" cy="100" r="100" fill="#66FCF1"/>
    </g>

    <g id="octagon">
        <path id="Octagon" d="M141.421 200H58.5786L0 141.421V58.5786L58.5786 0H141.421L200 58.5786V141.421L141.421 200Z" fill="#66FCF1" stroke="#66FCF1" stroke-width="5"/>
    </g>

    <g id="eq-triangle">
        <path id="Eq. Triangle" d="M99 -1L185.603 149H12.3975L99 -1Z" fill="#66FCF1"/>
    </g>

    <g id="hexagon">
        <path id="Hexagon" d="M197.99 99.4975L148.241 188.945H48.7437L-1.00502 99.4975L48.7437 10.0502H148.241L197.99 99.4975Z" fill="#66FCF1" stroke="#66FCF1" stroke-width="4"/>
    </g>

    <g id="pentagon">
        <path id="Pentagon" d="M45.6502 187.94L12.0603 79.2404L100 12.0603L187.94 79.2404L154.35 187.94H45.6502Z" fill="#66FCF1" stroke="#66FCF1" stroke-width="10" stroke-miterlimit="10"/>
    </g>

    <g id="heptagon">
        <path id="Heptagon" d="M141.373 192.965H58.6268L7.03517 126.607L25.448 43.8608L100 7.03517L174.552 43.8608L192.965 126.607L141.373 192.965Z" fill="#66FCF1" stroke="#66FCF1" stroke-width="5"/>
    </g>

    <g id="nonagon">
        <path id="Nonagon" d="M132.286 192.965H67.7137L18.2481 150.818L7.03517 86.2453L39.3215 29.461L100 7.03517L160.678 29.461L192.965 86.2453L181.752 150.818L132.286 192.965Z" fill="#66FCF1" stroke="#66FCF1" stroke-width="5"/>
    </g>

    <g id="parallelogram">
        <path id="Parallelogram" d="M51.6252 57.2864H197.99L148.375 142.714H2.01006L51.6252 57.2864Z" fill="#66FCF1"/>
    </g>

    <g id="rhombus">
        <path id="Rhombus" d="M49.2462 99.4977L99.4975 14.0704L149.749 99.4977L99.4975 184.925L49.2462 99.4977Z" fill="#66FCF1" stroke="#66FCF1" stroke-width="10" stroke-miterlimit="10"/>
    </g>

    <g id="right-triangle">
        <path d="M5 5V195H195L5 5ZM12.7373 23.5609L176.592 187.418H12.7373V23.5609Z" fill="#66FCF1"/>
        <path d="M8 189V15L180 189H8Z" fill="#66FCF1"/>
        <path d="M5 5V195H195L5 5ZM12.7373 23.5609L176.592 187.418H12.7373V23.5609Z" stroke="#66FCF1"/>
        <path d="M8 189V15L180 189H8Z" stroke="#66FCF1"/>
    </g>

    <g id="scalene-triangle">
        <path id="Scalene Triangle" d="M0 36L200 165H28.5714L0 36Z" fill="#66FCF1" stroke="#66FCF1" stroke-width="2"/>
    </g>

    <g id="oval">
        <ellipse id="Oval" cx="100" cy="100" rx="99" ry="68" fill="#66FCF1"/>
    </g>

    <defs>
        <clipPath id="clip0">
            <rect width="200" height="200" fill="white"/>
        </clipPath>
    </defs>
</svg>
