<svg width="200" height="200" viewBox="0 0 200 200" fill="none" xmlns="http://www.w3.org/2000/svg">
<!-- <g id="SVGIconSet" clip-path="url(#clip0)"> -->
<!-- <rect width="200" height="200" fill="white"/> -->

<path id="Logo" d="M45 71.3556V9H155V71.3556H110.185V44.2444H89.8148V64.5778L155 132.356V192H45V132.356H89.8148V155.4H110.185V132.356L45 71.3556Z" fill="#66FCF1"/>

<rect id="Square" x="-1" width="200" height="200" fill="#66FCF1"/>

<rect id="Rectangle" x="-1" y="33" width="200" height="135" fill="#66FCF1"/>

<circle id="Circle" cx="99" cy="100" r="100" fill="#66FCF1"/>

<path id="Octagon" d="M140.421 200H57.5786L-1 141.421V58.5786L57.5786 0H140.421L199 58.5786V141.421L140.421 200Z" fill="#66FCF1"/>

<path id="Eq. Triangle" d="M99 -1L185.603 149H12.3975L99 -1Z" fill="#66FCF1"/>

<path id="Hexagon" d="M198.995 99.4975L149.246 188.945H49.7487L0 99.4975L49.7487 10.0502H149.246L198.995 99.4975Z" fill="#66FCF1"/>

<path id="Pentagon" d="M44.5899 187.94L11 79.2404L98.9399 12.0603L186.879 79.2404L153.29 187.94H44.5899Z" fill="#66FCF1"/>

<path id="Heptagon" d="M140.338 192.965H57.5916L6 126.607L24.4128 43.8608L98.9648 7.03517L173.517 43.8608L191.93 126.607L140.338 192.965Z" fill="#66FCF1"/>

<path id="Nonagon" d="M131.251 192.965H66.6785L17.2129 150.818L6 86.2453L38.2863 29.461L98.9648 7.03517L159.643 29.461L191.93 86.2453L180.717 150.818L131.251 192.965Z" fill="#66FCF1"/>

<path id="Parallelogram" d="M50.6152 57.2864H196.98L147.365 142.714H1L50.6152 57.2864Z" fill="#66FCF1"/>

<path id="Rhombus" d="M49 99.4977L99.2513 14.0704L149.503 99.4977L99.2513 184.925L49 99.4977Z" fill="#66FCF1"/>

<path id="Right Triangle" d="M6 191V2L192 191H6Z" fill="#66FCF1"/>

<path id="Scalene Triangle" d="M-1 36L199 165H27.5714L-1 36Z" fill="#66FCF1"/>

<ellipse id="Oval" cx="99" cy="100" rx="99" ry="68" fill="#66FCF1"/>

<defs>
<clipPath id="clip0">
<rect width="200" height="200" fill="white"/>
</clipPath>
</defs>
</svg>
